<?xml version="1.0" encoding="UTF-8"?>
<svg version="1.1" xmlns="http://www.w3.org/2000/svg" width="1062" height="135">
<path d="M0,0 L92,0 L92,1 L101,1 L101,2 L107,2 L107,3 L111,3 L111,4 L115,4 L115,5 L118,5 L118,6 L121,6 L121,7 L123,7 L123,8 L125,8 L125,9 L127,9 L127,10 L128,10 L128,11 L130,11 L130,12 L131,12 L131,13 L132,13 L132,14 L133,14 L133,15 L134,15 L134,16 L135,16 L135,17 L136,17 L136,19 L137,19 L137,21 L138,21 L138,23 L139,23 L139,26 L140,26 L140,45 L139,45 L139,48 L138,48 L138,51 L137,51 L137,53 L136,53 L136,54 L135,54 L135,56 L134,56 L134,57 L133,57 L133,58 L132,58 L132,59 L131,59 L131,60 L130,60 L130,61 L128,61 L128,62 L127,62 L127,63 L125,63 L125,64 L123,64 L123,65 L121,65 L121,67 L123,67 L123,68 L125,68 L125,69 L127,69 L127,70 L128,70 L128,71 L129,71 L129,72 L130,72 L130,73 L131,73 L131,74 L132,74 L132,75 L133,75 L133,77 L134,77 L134,79 L135,79 L135,82 L136,82 L136,83 L137,83 L137,88 L138,88 L138,94 L139,94 L139,102 L99,102 L99,101 L98,101 L98,98 L97,98 L97,95 L96,95 L96,92 L95,92 L95,88 L94,88 L94,85 L93,85 L93,83 L92,83 L92,81 L91,81 L91,80 L90,80 L90,79 L89,79 L89,78 L88,78 L88,77 L87,77 L87,76 L85,76 L85,75 L83,75 L83,74 L78,74 L78,73 L43,73 L43,102 L0,102 Z M43,25 L43,47 L81,47 L81,46 L87,46 L87,45 L91,45 L91,44 L93,44 L93,43 L95,43 L95,42 L96,42 L96,40 L97,40 L97,32 L96,32 L96,30 L95,30 L95,29 L93,29 L93,28 L91,28 L91,27 L87,27 L87,26 L80,26 L80,25 Z " fill="#010101" transform="translate(740,3)"/>
<path d="M0,0 L92,0 L92,1 L100,1 L100,2 L106,2 L106,3 L111,3 L111,4 L115,4 L115,5 L118,5 L118,6 L120,6 L120,7 L123,7 L123,8 L125,8 L125,9 L126,9 L126,10 L128,10 L128,11 L129,11 L129,12 L131,12 L131,13 L132,13 L132,14 L133,14 L133,15 L134,15 L134,17 L135,17 L135,18 L136,18 L136,19 L137,19 L137,21 L138,21 L138,24 L139,24 L139,27 L140,27 L140,43 L139,43 L139,47 L138,47 L138,50 L137,50 L137,52 L136,52 L136,54 L135,54 L135,55 L134,55 L134,57 L133,57 L133,58 L132,58 L132,59 L131,59 L131,60 L129,60 L129,61 L128,61 L128,62 L127,62 L127,63 L125,63 L125,64 L123,64 L123,65 L121,65 L121,66 L120,66 L120,67 L123,67 L123,68 L125,68 L125,69 L126,69 L126,70 L128,70 L128,71 L129,71 L129,72 L130,72 L130,73 L131,73 L131,74 L132,74 L132,75 L133,75 L133,77 L134,77 L134,80 L135,80 L135,83 L136,83 L136,84 L137,84 L137,91 L138,91 L138,96 L139,96 L139,99 L140,99 L140,102 L99,102 L99,101 L98,101 L98,99 L97,99 L97,96 L96,96 L96,92 L95,92 L95,88 L94,88 L94,86 L93,86 L93,84 L92,84 L92,82 L91,82 L91,80 L90,80 L90,79 L89,79 L89,78 L88,78 L88,77 L86,77 L86,76 L85,76 L85,75 L82,75 L82,74 L79,74 L79,73 L42,73 L42,102 L0,102 Z M43,25 L43,47 L80,47 L80,46 L86,46 L86,45 L90,45 L90,44 L93,44 L93,43 L94,43 L94,42 L95,42 L95,41 L96,41 L96,39 L97,39 L97,32 L96,32 L96,31 L95,31 L95,30 L94,30 L94,29 L93,29 L93,28 L90,28 L90,27 L88,27 L88,26 L80,26 L80,25 Z " fill="#010101" transform="translate(4,3)"/>
<path d="M0,0 L92,0 L92,1 L100,1 L100,2 L106,2 L106,3 L111,3 L111,4 L115,4 L115,5 L118,5 L118,6 L120,6 L120,7 L123,7 L123,8 L124,8 L124,9 L126,9 L126,10 L128,10 L128,11 L129,11 L129,12 L131,12 L131,13 L132,13 L132,14 L133,14 L133,15 L134,15 L134,17 L135,17 L135,18 L136,18 L136,19 L137,19 L137,21 L138,21 L138,24 L139,24 L139,27 L140,27 L140,43 L139,43 L139,48 L138,48 L138,50 L137,50 L137,52 L136,52 L136,54 L135,54 L135,55 L134,55 L134,57 L133,57 L133,58 L132,58 L132,59 L131,59 L131,60 L130,60 L130,61 L128,61 L128,62 L127,62 L127,63 L125,63 L125,64 L124,64 L124,65 L121,65 L121,66 L119,66 L119,67 L116,67 L116,68 L113,68 L113,69 L109,69 L109,70 L105,70 L105,71 L96,71 L96,72 L87,72 L87,73 L42,73 L42,102 L0,102 Z M43,25 L43,48 L83,48 L83,47 L87,47 L87,46 L91,46 L91,45 L93,45 L93,44 L94,44 L94,43 L95,43 L95,42 L96,42 L96,40 L97,40 L97,32 L96,32 L96,31 L95,31 L95,30 L94,30 L94,29 L93,29 L93,28 L91,28 L91,27 L87,27 L87,26 L83,26 L83,25 Z " fill="#010101" transform="translate(306,3)"/>
<path d="M0,0 L44,0 L44,60 L45,60 L45,64 L46,64 L46,67 L47,67 L47,69 L48,69 L48,70 L49,70 L49,71 L50,71 L50,72 L51,72 L51,73 L52,73 L52,74 L54,74 L54,75 L56,75 L56,76 L59,76 L59,77 L73,77 L73,76 L76,76 L76,75 L78,75 L78,74 L80,74 L80,73 L81,73 L81,72 L82,72 L82,71 L83,71 L83,70 L84,70 L84,68 L85,68 L85,66 L86,66 L86,64 L87,64 L87,60 L88,60 L88,0 L132,0 L132,60 L131,60 L131,66 L130,66 L130,70 L129,70 L129,73 L128,73 L128,76 L127,76 L127,79 L126,79 L126,81 L125,81 L125,82 L124,82 L124,84 L123,84 L123,85 L122,85 L122,86 L121,86 L121,88 L120,88 L120,89 L119,89 L119,90 L118,90 L118,91 L117,91 L117,92 L116,92 L116,93 L114,93 L114,94 L113,94 L113,95 L111,95 L111,96 L109,96 L109,97 L107,97 L107,98 L105,98 L105,99 L103,99 L103,100 L100,100 L100,101 L96,101 L96,102 L92,102 L92,103 L86,103 L86,104 L79,104 L79,105 L56,105 L56,104 L44,104 L44,103 L39,103 L39,102 L35,102 L35,101 L32,101 L32,100 L29,100 L29,99 L27,99 L27,98 L24,98 L24,97 L23,97 L23,96 L21,96 L21,95 L19,95 L19,94 L18,94 L18,93 L16,93 L16,92 L15,92 L15,91 L14,91 L14,90 L13,90 L13,89 L12,89 L12,88 L11,88 L11,86 L10,86 L10,85 L9,85 L9,84 L8,84 L8,82 L7,82 L7,81 L6,81 L6,79 L5,79 L5,76 L4,76 L4,74 L3,74 L3,70 L2,70 L2,67 L1,67 L1,62 L0,62 Z " fill="#040302" transform="translate(156,3)"/>
<path d="M0,0 L44,0 L44,58 L45,58 L45,63 L46,63 L46,66 L47,66 L47,68 L48,68 L48,70 L49,70 L49,71 L50,71 L50,72 L51,72 L51,73 L52,73 L52,74 L54,74 L54,75 L56,75 L56,76 L60,76 L60,77 L73,77 L73,76 L76,76 L76,75 L79,75 L79,74 L80,74 L80,73 L81,73 L81,72 L83,72 L83,70 L84,70 L84,69 L85,69 L85,67 L86,67 L86,65 L87,65 L87,61 L88,61 L88,0 L132,0 L132,63 L131,63 L131,68 L130,68 L130,71 L129,71 L129,74 L128,74 L128,77 L127,77 L127,79 L126,79 L126,81 L125,81 L125,83 L124,83 L124,84 L123,84 L123,86 L122,86 L122,87 L121,87 L121,88 L120,88 L120,89 L119,89 L119,90 L118,90 L118,91 L117,91 L117,92 L116,92 L116,93 L115,93 L115,94 L113,94 L113,95 L111,95 L111,96 L110,96 L110,97 L108,97 L108,98 L106,98 L106,99 L103,99 L103,100 L100,100 L100,101 L96,101 L96,102 L92,102 L92,103 L86,103 L86,104 L79,104 L79,105 L56,105 L56,104 L44,104 L44,103 L39,103 L39,102 L36,102 L36,101 L32,101 L32,100 L29,100 L29,99 L27,99 L27,98 L25,98 L25,97 L23,97 L23,96 L21,96 L21,95 L20,95 L20,94 L18,94 L18,93 L17,93 L17,92 L16,92 L16,91 L14,91 L14,90 L13,90 L13,89 L12,89 L12,87 L11,87 L11,86 L10,86 L10,85 L9,85 L9,83 L8,83 L8,82 L7,82 L7,80 L6,80 L6,78 L5,78 L5,76 L4,76 L4,73 L3,73 L3,69 L2,69 L2,65 L1,65 L1,59 L0,59 Z " fill="#040302" transform="translate(590,3)"/>
<path d="M0,0 L42,0 L42,1 L43,1 L43,3 L44,3 L44,5 L45,5 L45,6 L46,6 L46,8 L47,8 L47,9 L48,9 L48,11 L49,11 L49,12 L50,12 L50,14 L51,14 L51,16 L52,16 L52,17 L53,17 L53,19 L54,19 L54,20 L55,20 L55,22 L56,22 L56,23 L57,23 L57,25 L58,25 L58,26 L59,26 L59,28 L60,28 L60,30 L61,30 L61,31 L62,31 L62,33 L63,33 L63,34 L64,34 L64,36 L65,36 L65,37 L66,37 L66,39 L67,39 L67,41 L68,41 L68,42 L69,42 L69,44 L70,44 L70,45 L71,45 L71,47 L72,47 L72,48 L73,48 L73,50 L74,50 L74,52 L75,52 L75,53 L76,53 L76,55 L77,55 L77,56 L78,56 L78,58 L79,58 L79,59 L80,59 L80,61 L81,61 L81,62 L82,62 L82,64 L83,64 L83,66 L84,66 L84,67 L85,67 L85,69 L86,69 L86,70 L87,70 L87,72 L88,72 L88,73 L89,73 L89,75 L90,75 L90,77 L91,77 L91,78 L92,78 L92,80 L93,80 L93,81 L94,81 L94,83 L95,83 L95,84 L96,84 L96,86 L97,86 L97,87 L98,87 L98,89 L99,89 L99,91 L100,91 L100,92 L101,92 L101,94 L102,94 L102,95 L103,95 L103,97 L104,97 L104,98 L105,98 L105,100 L106,100 L106,102 L107,102 L107,103 L63,103 L63,102 L62,102 L62,100 L61,100 L61,98 L60,98 L60,97 L59,97 L59,95 L58,95 L58,93 L57,93 L57,91 L56,91 L56,90 L55,90 L55,88 L54,88 L54,86 L-12,86 L-12,87 L-13,87 L-13,89 L-14,89 L-14,91 L-15,91 L-15,93 L-16,93 L-16,94 L-17,94 L-17,96 L-18,96 L-18,98 L-19,98 L-19,100 L-20,100 L-20,101 L-21,101 L-21,103 L-65,103 L-65,101 L-64,101 L-64,100 L-63,100 L-63,98 L-62,98 L-62,96 L-61,96 L-61,95 L-60,95 L-60,93 L-59,93 L-59,92 L-58,92 L-58,90 L-57,90 L-57,89 L-56,89 L-56,87 L-55,87 L-55,85 L-54,85 L-54,84 L-53,84 L-53,82 L-52,82 L-52,81 L-51,81 L-51,79 L-50,79 L-50,78 L-49,78 L-49,76 L-48,76 L-48,75 L-47,75 L-47,73 L-46,73 L-46,71 L-45,71 L-45,70 L-44,70 L-44,68 L-43,68 L-43,67 L-42,67 L-42,65 L-41,65 L-41,64 L-40,64 L-40,62 L-39,62 L-39,60 L-38,60 L-38,59 L-37,59 L-37,57 L-36,57 L-36,56 L-35,56 L-35,54 L-34,54 L-34,53 L-33,53 L-33,51 L-32,51 L-32,50 L-31,50 L-31,48 L-30,48 L-30,46 L-29,46 L-29,45 L-28,45 L-28,43 L-27,43 L-27,42 L-26,42 L-26,40 L-25,40 L-25,39 L-24,39 L-24,37 L-23,37 L-23,35 L-22,35 L-22,34 L-21,34 L-21,32 L-20,32 L-20,31 L-19,31 L-19,29 L-18,29 L-18,28 L-17,28 L-17,26 L-16,26 L-16,25 L-15,25 L-15,23 L-14,23 L-14,21 L-13,21 L-13,20 L-12,20 L-12,18 L-11,18 L-11,17 L-10,17 L-10,15 L-9,15 L-9,14 L-8,14 L-8,12 L-7,12 L-7,10 L-6,10 L-6,9 L-5,9 L-5,7 L-4,7 L-4,6 L-3,6 L-3,4 L-2,4 L-2,3 L-1,3 L-1,1 L0,1 Z M20,31 L20,32 L19,32 L19,34 L18,34 L18,35 L17,35 L17,37 L16,37 L16,39 L15,39 L15,41 L14,41 L14,43 L13,43 L13,44 L12,44 L12,46 L11,46 L11,48 L10,48 L10,49 L9,49 L9,51 L8,51 L8,53 L7,53 L7,55 L6,55 L6,56 L5,56 L5,58 L4,58 L4,60 L3,60 L3,61 L39,61 L39,60 L38,60 L38,59 L37,59 L37,57 L36,57 L36,55 L35,55 L35,53 L34,53 L34,52 L33,52 L33,50 L32,50 L32,48 L31,48 L31,46 L30,46 L30,45 L29,45 L29,43 L28,43 L28,41 L27,41 L27,39 L26,39 L26,38 L25,38 L25,36 L24,36 L24,34 L23,34 L23,32 L22,32 L22,31 Z " fill="#040303" transform="translate(952,3)"/>
<path d="M0,0 L124,0 L124,6 L125,6 L125,7 L124,7 L124,25 L83,25 L83,102 L40,102 L40,25 L0,25 Z " fill="#010000" transform="translate(456,3)"/>
<path d="M0,0 L2,0 L2,1 L7,1 L7,2 L4,2 L4,3 L1,3 L1,4 L-2,4 L-2,5 L6,5 L6,6 L4,6 L4,7 L3,7 L3,8 L11,8 L11,9 L10,9 L10,10 L8,10 L8,11 L11,11 L11,12 L10,12 L10,13 L8,13 L8,14 L13,14 L13,15 L12,15 L12,16 L10,16 L10,17 L7,17 L7,18 L5,18 L5,19 L11,19 L11,20 L10,20 L10,21 L9,21 L9,22 L7,22 L7,23 L5,23 L5,24 L3,24 L3,26 L-5,26 L-5,29 L-7,29 L-7,30 L-14,30 L-14,31 L-45,31 L-45,30 L-52,30 L-52,29 L-54,29 L-54,28 L-53,28 L-53,27 L-54,27 L-54,26 L-61,26 L-61,25 L-62,25 L-62,23 L-64,23 L-64,22 L-66,22 L-66,21 L-57,21 L-57,20 L-60,20 L-60,19 L-64,19 L-64,18 L-66,18 L-66,17 L-57,17 L-57,16 L-60,16 L-60,15 L-64,15 L-64,14 L-66,14 L-66,13 L-61,13 L-61,12 L-64,12 L-64,11 L-67,11 L-67,10 L-68,10 L-68,9 L-57,9 L-57,8 L-60,8 L-60,7 L-63,7 L-63,6 L-51,6 L-51,5 L-56,5 L-56,4 L-60,4 L-60,3 L-63,3 L-63,2 L-66,2 L-66,1 L-57,1 L-57,2 L-52,2 L-52,3 L-40,3 L-40,4 L-17,4 L-17,3 L-10,3 L-10,2 L-4,2 L-4,1 L0,1 Z " fill="#F2061E" transform="translate(686,104)"/>
<path d="M0,0 L2,0 L2,1 L6,1 L6,2 L4,2 L4,3 L1,3 L1,4 L-1,4 L-1,5 L5,5 L5,6 L3,6 L3,7 L1,7 L1,8 L-1,8 L-1,9 L7,9 L7,10 L6,10 L6,11 L4,11 L4,12 L1,12 L1,13 L-2,13 L-2,14 L-7,14 L-7,15 L0,15 L0,16 L-3,16 L-3,17 L-6,17 L-6,18 L-10,18 L-10,19 L0,19 L0,20 L-3,20 L-3,21 L-7,21 L-7,22 L-11,22 L-11,23 L0,23 L0,24 L-3,24 L-3,25 L-7,25 L-7,26 L-10,26 L-10,27 L-11,27 L-11,28 L-9,28 L-9,29 L-25,29 L-25,30 L-72,30 L-72,17 L-73,17 L-73,6 L-29,6 L-29,5 L-20,5 L-20,4 L-11,4 L-11,3 L-7,3 L-7,2 L-3,2 L-3,1 L0,1 Z " fill="#F46A22" transform="translate(422,70)"/>
<path d="M0,0 L36,0 L36,1 L39,1 L39,2 L42,2 L42,3 L43,3 L43,4 L45,4 L45,5 L46,5 L46,8 L47,8 L47,10 L48,10 L48,12 L47,12 L47,14 L48,14 L48,17 L46,17 L46,18 L47,18 L47,20 L48,20 L48,23 L49,23 L49,26 L48,26 L48,29 L47,29 L47,31 L45,31 L45,32 L44,32 L44,31 L43,31 L43,30 L41,30 L41,29 L38,29 L38,28 L33,28 L33,27 L1,27 L1,36 L0,36 Z " fill="#F46724" transform="translate(47,76)"/>
<path d="M0,0 L1,0 L1,5 L0,5 L0,10 L1,10 L1,12 L0,12 L0,25 L-1,25 L-1,29 L-3,29 L-3,30 L-2,30 L-2,33 L-3,33 L-3,34 L-47,34 L-47,32 L-46,32 L-46,31 L-45,31 L-45,30 L-47,30 L-47,28 L-46,28 L-46,27 L-45,27 L-45,26 L-3,26 L-3,25 L-2,25 L-2,23 L-37,23 L-37,24 L-45,24 L-45,25 L-46,25 L-46,26 L-47,26 L-47,24 L-46,24 L-46,23 L-45,23 L-45,22 L-47,22 L-47,21 L-46,21 L-46,19 L-47,19 L-47,17 L-46,17 L-46,16 L-45,16 L-45,14 L-47,14 L-47,13 L-46,13 L-46,11 L-45,11 L-45,10 L-47,10 L-47,9 L-46,9 L-46,8 L-45,8 L-45,7 L-3,7 L-3,5 L-2,5 L-2,4 L-1,4 L-1,2 L0,2 Z " fill="#F30920" transform="translate(934,99)"/>
<path d="M0,0 L66,0 L66,5 L67,5 L67,4 L68,4 L68,16 L69,16 L69,18 L70,18 L70,14 L71,14 L71,21 L72,21 L72,23 L73,23 L73,25 L74,25 L74,29 L77,29 L77,30 L75,30 L75,32 L74,32 L74,30 L73,30 L73,28 L72,28 L72,26 L71,26 L71,25 L70,25 L70,23 L69,23 L69,21 L68,21 L68,19 L67,19 L67,18 L66,18 L66,16 L65,16 L65,15 L0,15 L0,17 L-1,17 L-1,19 L-2,19 L-2,21 L-3,21 L-3,22 L-4,22 L-4,24 L-5,24 L-5,26 L-6,26 L-6,28 L-7,28 L-7,30 L-8,30 L-8,28 L-9,28 L-9,27 L-7,27 L-7,23 L-6,23 L-6,21 L-5,21 L-5,17 L-3,17 L-3,16 L-2,16 L-2,7 L-1,7 L-1,1 L0,1 Z " fill="#F34421" transform="translate(940,101)"/>
<path d="M0,0 L43,0 L43,1 L44,1 L44,3 L42,3 L42,4 L43,4 L43,6 L44,6 L44,7 L41,7 L41,8 L42,8 L42,9 L43,9 L43,11 L44,11 L44,12 L43,12 L43,14 L44,14 L44,15 L42,15 L42,16 L43,16 L43,18 L44,18 L44,19 L42,19 L42,20 L43,20 L43,22 L44,22 L44,23 L42,23 L42,24 L43,24 L43,26 L44,26 L44,27 L37,27 L37,26 L38,26 L38,25 L41,25 L41,24 L-1,24 L-1,20 L-2,20 L-2,18 L-3,18 L-3,16 L-4,16 L-4,15 L-3,15 L-3,12 L-2,12 L-2,10 L-3,10 L-3,5 L-2,5 L-2,2 L-1,2 L-1,1 L0,1 Z " fill="#F30720" transform="translate(1015,106)"/>
<path d="M0,0 L1,0 L1,9 L0,9 L0,30 L-40,30 L-40,3 L0,3 Z " fill="#FACD7D" transform="translate(580,25)"/>
<path d="M0,0 L58,0 L58,1 L56,1 L56,2 L62,2 L62,3 L60,3 L60,4 L57,4 L57,5 L65,5 L65,6 L63,6 L63,7 L60,7 L60,8 L57,8 L57,9 L65,9 L65,10 L63,10 L63,11 L60,11 L60,12 L55,12 L55,13 L51,13 L51,14 L58,14 L58,15 L52,15 L52,16 L53,16 L53,17 L52,17 L52,18 L44,18 L44,19 L14,19 L14,18 L6,18 L6,17 L5,17 L5,16 L6,16 L6,15 L2,15 L2,14 L-2,14 L-2,11 L-5,11 L-5,10 L-7,10 L-7,9 L2,9 L2,8 L-2,8 L-2,7 L-5,7 L-5,6 L-7,6 L-7,5 L2,5 L2,4 L0,4 L0,3 L8,3 L8,2 L3,2 L3,1 L0,1 Z " fill="#F30420" transform="translate(193,116)"/>
<path d="M0,0 L37,0 L37,1 L44,1 L44,2 L46,2 L46,5 L48,5 L48,6 L51,6 L51,8 L49,8 L49,10 L50,10 L50,11 L52,11 L52,13 L45,13 L45,14 L48,14 L48,15 L49,15 L49,16 L47,16 L47,17 L48,17 L48,18 L49,18 L49,19 L48,19 L48,20 L44,20 L44,21 L38,21 L38,22 L0,22 Z " fill="#F8CB7B" transform="translate(783,28)"/>
<path d="M0,0 L1,0 L1,7 L36,7 L36,8 L40,8 L40,9 L41,9 L41,8 L46,8 L46,10 L45,10 L45,12 L46,12 L46,13 L47,13 L47,14 L48,14 L48,16 L47,16 L47,22 L48,22 L48,24 L47,24 L47,26 L48,26 L48,27 L49,27 L49,29 L48,29 L48,31 L49,31 L49,33 L50,33 L50,38 L49,38 L49,36 L48,36 L48,35 L47,35 L47,33 L46,33 L46,32 L44,32 L44,31 L43,31 L43,30 L41,30 L41,29 L39,29 L39,28 L34,28 L34,27 L1,27 L1,52 L0,52 Z " fill="#F46727" transform="translate(783,76)"/>
<path d="M0,0 L38,0 L38,1 L45,1 L45,2 L47,2 L47,4 L40,4 L40,5 L44,5 L44,6 L48,6 L48,7 L50,7 L50,8 L51,8 L51,9 L52,9 L52,10 L45,10 L45,11 L47,11 L47,12 L40,12 L40,13 L45,13 L45,14 L48,14 L48,16 L47,16 L47,17 L43,17 L43,18 L37,18 L37,19 L0,19 Z " fill="#F9CC7C" transform="translate(47,31)"/>
<path d="M0,0 L1,0 L1,27 L-39,27 L-39,8 L0,8 L0,7 L-39,7 L-39,5 L0,5 Z " fill="#F9CC7C" transform="translate(495,28)"/>
<path d="M0,0 L42,0 L42,1 L43,1 L43,14 L42,14 L42,18 L0,18 Z " fill="#F3081E" transform="translate(306,114)"/>
<path d="M0,0 L42,0 L42,1 L43,1 L43,14 L42,14 L42,18 L0,18 Z " fill="#F3081E" transform="translate(4,114)"/>
<path d="M0,0 L66,0 L66,2 L67,2 L67,7 L66,7 L66,9 L67,9 L67,11 L-1,11 L-1,1 L0,1 Z " fill="#F3441F" transform="translate(940,89)"/>
<path d="M0,0 L43,0 L43,14 L0,14 Z " fill="#F3081E" transform="translate(740,110)"/>
<path d="M0,0 L1,0 L1,4 L2,4 L2,8 L3,8 L3,11 L4,11 L4,13 L5,13 L5,14 L45,14 L45,16 L47,16 L47,18 L46,18 L46,22 L45,22 L45,24 L4,24 L4,28 L46,28 L46,29 L5,29 L5,30 L4,30 L4,33 L5,33 L5,34 L4,34 L4,35 L3,35 L3,21 L2,21 L2,27 L1,27 L1,11 L0,11 Z " fill="#EA0F1E" transform="translate(98,91)"/>
<path d="M0,0 L40,0 L40,1 L41,1 L41,5 L40,5 L40,7 L34,7 L34,8 L40,8 L40,13 L0,13 L0,12 L-1,12 L-1,6 L1,6 L1,5 L0,5 Z " fill="#F3081E" transform="translate(839,115)"/>
<path d="M0,0 L1,0 L1,14 L2,14 L2,13 L3,13 L3,12 L2,12 L2,9 L3,9 L3,8 L44,8 L44,9 L43,9 L43,10 L44,10 L44,13 L43,13 L43,14 L44,14 L44,17 L43,17 L43,18 L3,18 L3,20 L2,20 L2,18 L1,18 L1,16 L0,16 Z " fill="#F30F22" transform="translate(100,112)"/>
<path d="M0,0 L42,0 L42,1 L40,1 L40,2 L45,2 L45,3 L46,3 L46,2 L47,2 L47,1 L49,1 L49,3 L50,3 L50,4 L51,4 L51,5 L52,5 L52,7 L49,7 L49,8 L50,8 L50,9 L1,9 L1,7 L0,7 Z " fill="#FACC7C" transform="translate(349,30)"/>
<path d="M0,0 L42,0 L42,10 L0,10 Z " fill="#F3081E" transform="translate(497,122)"/>
<path d="M0,0 L38,0 L38,1 L44,1 L44,2 L47,2 L47,3 L48,3 L48,4 L46,4 L46,5 L47,5 L47,6 L49,6 L49,7 L44,7 L44,8 L42,8 L42,9 L0,9 Z " fill="#FACC7C" transform="translate(350,40)"/>
<path d="M0,0 L2,0 L2,1 L4,1 L4,2 L3,2 L3,3 L1,3 L1,4 L0,4 L0,5 L4,5 L4,6 L3,6 L3,7 L1,7 L1,8 L-1,8 L-1,9 L-2,9 L-2,10 L4,10 L4,11 L3,11 L3,12 L1,12 L1,13 L4,13 L4,14 L3,14 L3,15 L2,15 L2,16 L5,16 L5,17 L4,17 L4,18 L2,18 L2,19 L1,19 L1,20 L-1,20 L-1,21 L4,21 L4,24 L1,24 L1,25 L-2,25 L-2,26 L-4,26 L-4,27 L-6,27 L-6,28 L-9,28 L-9,27 L-7,27 L-7,26 L-5,26 L-5,25 L-13,25 L-13,24 L-10,24 L-10,23 L-7,23 L-7,22 L-5,22 L-5,21 L-13,21 L-13,20 L-10,20 L-10,19 L-8,19 L-8,18 L-14,18 L-14,17 L-12,17 L-12,16 L-31,16 L-31,15 L-30,15 L-30,14 L-21,14 L-21,13 L-14,13 L-14,12 L-11,12 L-11,11 L-28,11 L-28,10 L-21,10 L-21,9 L-14,9 L-14,8 L-11,8 L-11,7 L-21,7 L-21,6 L-15,6 L-15,5 L-11,5 L-11,4 L-7,4 L-7,3 L-4,3 L-4,2 L-2,2 L-2,1 L0,1 Z " fill="#F0121D" transform="translate(263,100)"/>
<path d="M0,0 L1,0 L1,1 L3,1 L3,2 L5,2 L5,3 L8,3 L8,4 L12,4 L12,5 L6,5 L6,6 L9,6 L9,7 L12,7 L12,8 L16,8 L16,9 L21,9 L21,10 L9,10 L9,11 L12,11 L12,12 L15,12 L15,13 L4,13 L4,14 L5,14 L5,15 L8,15 L8,16 L11,16 L11,17 L6,17 L6,18 L8,18 L8,19 L12,19 L12,20 L15,20 L15,21 L6,21 L6,22 L8,22 L8,23 L12,23 L12,24 L15,24 L15,25 L6,25 L6,26 L8,26 L8,27 L10,27 L10,29 L11,29 L11,30 L18,30 L18,31 L19,31 L19,32 L18,32 L18,33 L15,33 L15,32 L11,32 L11,31 L7,31 L7,30 L5,30 L5,29 L2,29 L2,28 L0,28 L0,27 L-2,27 L-2,26 L-3,26 L-3,25 L-5,25 L-5,23 L-4,23 L-4,22 L-3,22 L-3,21 L-4,21 L-4,20 L0,20 L0,19 L-1,19 L-1,18 L-3,18 L-3,17 L-4,17 L-4,16 L-5,16 L-5,15 L-2,15 L-2,14 L-3,14 L-3,13 L-4,13 L-4,12 L-2,12 L-2,11 L-3,11 L-3,10 L-4,10 L-4,9 L2,9 L2,8 L1,8 L1,7 L-1,7 L-1,6 L-2,6 L-2,5 L2,5 L2,4 L1,4 L1,2 L0,2 Z " fill="#F21D22" transform="translate(614,100)"/>
<path d="M0,0 L1,0 L1,1 L5,1 L5,2 L10,2 L10,3 L22,3 L22,4 L45,4 L45,3 L62,3 L62,4 L59,4 L59,5 L52,5 L52,6 L45,6 L45,7 L62,7 L62,8 L59,8 L59,9 L52,9 L52,10 L42,10 L42,11 L22,11 L22,10 L11,10 L11,9 L6,9 L6,8 L3,8 L3,7 L21,7 L21,6 L13,6 L13,5 L6,5 L6,4 L2,4 L2,3 L-1,3 L-1,2 L0,2 Z " fill="#F0011D" transform="translate(190,104)"/>
<path d="M0,0 L4,0 L4,2 L3,2 L3,3 L6,3 L6,4 L10,4 L10,5 L17,5 L17,6 L25,6 L25,7 L7,7 L7,8 L10,8 L10,9 L15,9 L15,10 L26,10 L26,11 L46,11 L46,12 L7,12 L7,13 L10,13 L10,14 L15,14 L15,15 L7,15 L7,16 L9,16 L9,17 L0,17 L0,18 L2,18 L2,19 L5,19 L5,20 L9,20 L9,21 L0,21 L0,22 L2,22 L2,23 L4,23 L4,24 L1,24 L1,23 L-3,23 L-3,22 L-4,22 L-4,20 L-6,20 L-6,19 L-7,19 L-7,18 L-9,18 L-9,17 L-4,17 L-4,16 L-6,16 L-6,15 L-7,15 L-7,14 L-9,14 L-9,13 L-4,13 L-4,12 L-5,12 L-5,11 L-7,11 L-7,10 L-4,10 L-4,9 L-6,9 L-6,8 L-7,8 L-7,7 L1,7 L1,6 L-1,6 L-1,5 L-3,5 L-3,4 L-4,4 L-4,3 L2,3 L2,2 L0,2 Z M46,10 L47,10 L47,11 L46,11 Z " fill="#F3121E" transform="translate(186,104)"/>
<path d="M0,0 L44,0 L44,7 L43,7 L43,6 L1,6 L1,24 L43,24 L43,20 L44,20 L44,25 L0,25 Z " fill="#DA3237" transform="translate(3,108)"/>
<path d="M0,0 L1,0 L1,1 L3,1 L3,4 L2,4 L2,5 L3,5 L3,6 L2,6 L2,7 L1,7 L1,9 L2,9 L2,11 L1,11 L1,12 L0,12 L0,13 L2,13 L2,16 L1,16 L1,17 L0,17 L0,18 L-1,18 L-1,19 L-3,19 L-3,20 L-4,20 L-4,21 L-3,21 L-3,23 L-4,23 L-4,22 L-6,22 L-6,23 L-9,23 L-9,22 L-10,22 L-10,23 L-11,23 L-11,24 L-13,24 L-13,25 L-17,25 L-17,24 L-14,24 L-14,23 L-25,23 L-25,22 L-21,22 L-21,21 L-17,21 L-17,20 L-14,20 L-14,19 L-24,19 L-24,18 L-20,18 L-20,17 L-17,17 L-17,16 L-14,16 L-14,15 L-21,15 L-21,14 L-16,14 L-16,13 L-13,13 L-13,12 L-10,12 L-10,11 L-8,11 L-8,10 L-7,10 L-7,9 L-15,9 L-15,8 L-13,8 L-13,7 L-11,7 L-11,6 L-8,6 L-8,5 L-6,5 L-6,4 L-4,4 L-4,3 L-3,3 L-3,2 L-1,2 L-1,1 L0,1 Z " fill="#F58026" transform="translate(436,70)"/>
<path d="M0,0 L1,0 L1,25 L40,25 L40,30 L1,30 L1,32 L40,32 L40,33 L1,33 L1,48 L0,48 Z " fill="#F6CF89" transform="translate(455,3)"/>
<path d="M0,0 L34,0 L34,1 L39,1 L39,2 L40,2 L40,4 L41,4 L41,5 L42,5 L42,7 L36,7 L36,8 L35,8 L35,7 L0,7 Z " fill="#F36723" transform="translate(784,76)"/>
<path d="M0,0 L1,0 L1,4 L3,4 L3,6 L1,6 L1,7 L0,7 L0,8 L-1,8 L-1,9 L-2,9 L-2,10 L2,10 L2,11 L1,11 L1,12 L0,12 L0,13 L-1,13 L-1,14 L-3,14 L-3,15 L-4,15 L-4,16 L-5,16 L-5,17 L-3,17 L-3,18 L-4,18 L-4,19 L-5,19 L-5,20 L-6,20 L-6,21 L-3,21 L-3,22 L-4,22 L-4,23 L-5,23 L-5,24 L-2,24 L-2,26 L-3,26 L-3,27 L-4,27 L-4,28 L-5,28 L-5,29 L-7,29 L-7,28 L-6,28 L-6,26 L-8,26 L-8,24 L-13,24 L-13,23 L-11,23 L-11,22 L-10,22 L-10,21 L-13,21 L-13,20 L-11,20 L-11,19 L-10,19 L-10,18 L-18,18 L-18,17 L-17,17 L-17,16 L-15,16 L-15,15 L-23,15 L-23,14 L-20,14 L-20,13 L-17,13 L-17,12 L-14,12 L-14,11 L-19,11 L-19,10 L-17,10 L-17,9 L-14,9 L-14,8 L-11,8 L-11,7 L-9,7 L-9,6 L-7,6 L-7,5 L-6,5 L-6,4 L-4,4 L-4,3 L-2,3 L-2,2 L-1,2 L-1,1 L0,1 Z " fill="#F1221E" transform="translate(707,94)"/>
<path d="M0,0 L43,0 L43,5 L42,5 L42,6 L0,6 Z " fill="#F3091E" transform="translate(497,107)"/>
<path d="M0,0 L42,0 L42,6 L0,6 L0,3 L-1,3 L-1,1 L0,1 Z " fill="#F3061E" transform="translate(497,114)"/>
<path d="M0,0 L1,0 L1,8 L2,8 L2,15 L3,15 L3,16 L43,16 L43,11 L37,11 L37,10 L43,10 L43,8 L44,8 L44,7 L45,7 L45,9 L44,9 L44,21 L3,21 L3,19 L2,19 L2,18 L1,18 L1,15 L0,15 L0,12 L-1,12 L-1,9 L0,9 Z " fill="#F53040" transform="translate(836,112)"/>
<path d="M0,0 L1,0 L1,77 L0,77 L0,91 L-1,91 L-1,96 L-2,96 L-2,99 L-3,99 L-3,102 L-4,102 L-4,104 L-5,104 L-5,107 L-6,107 L-6,108 L-7,108 L-7,110 L-8,110 L-8,112 L-9,112 L-9,113 L-10,113 L-10,109 L-8,109 L-8,105 L-7,105 L-7,97 L-5,97 L-5,88 L-6,88 L-6,87 L-5,87 L-5,81 L-4,81 L-4,85 L-3,85 L-3,74 L-2,74 L-2,66 L-1,66 L-1,60 L0,60 Z " fill="#EE8C4F" transform="translate(288,3)"/>
<path d="M0,0 L1,0 L1,3 L2,3 L2,6 L3,6 L3,9 L4,9 L4,10 L44,10 L44,6 L45,6 L45,9 L46,9 L46,14 L45,14 L45,15 L4,15 L4,14 L5,14 L5,13 L4,13 L4,11 L2,11 L2,14 L1,14 L1,4 L0,4 Z " fill="#E01121" transform="translate(835,95)"/>
<path d="M0,0 L1,0 L1,1 L2,1 L2,2 L4,2 L4,3 L6,3 L6,4 L7,4 L7,5 L10,5 L10,6 L12,6 L12,7 L15,7 L15,8 L13,8 L13,10 L15,10 L15,11 L9,11 L9,12 L10,12 L10,13 L12,13 L12,14 L14,14 L14,15 L6,15 L6,16 L7,16 L7,17 L9,17 L9,18 L6,18 L6,19 L8,19 L8,20 L9,20 L9,21 L4,21 L4,22 L6,22 L6,23 L7,23 L7,24 L9,24 L9,25 L4,25 L4,26 L6,26 L6,27 L7,27 L7,28 L5,28 L5,27 L0,27 L0,26 L2,26 L2,25 L0,25 L0,23 L-1,23 L-1,22 L-2,22 L-2,20 L-1,20 L-1,17 L2,17 L2,15 L3,15 L3,14 L2,14 L2,13 L1,13 L1,12 L-1,12 L-1,10 L2,10 L2,8 L1,8 L1,7 L0,7 L0,6 L-1,6 L-1,5 L2,5 L2,4 L1,4 L1,3 L0,3 Z " fill="#F0241D" transform="translate(173,96)"/>
<path d="M0,0 L43,0 L43,5 L0,5 Z " fill="#F30A1E" transform="translate(306,108)"/>
<path d="M0,0 L43,0 L43,5 L0,5 Z " fill="#E3091C" transform="translate(740,105)"/>
<path d="M0,0 L42,0 L42,5 L0,5 Z " fill="#F3071E" transform="translate(740,127)"/>
<path d="M0,0 L1,0 L1,1 L3,1 L3,2 L4,2 L4,3 L5,3 L5,4 L7,4 L7,5 L8,5 L8,6 L10,6 L10,7 L11,7 L11,9 L12,9 L12,11 L13,11 L13,12 L9,12 L9,13 L10,13 L10,14 L12,14 L12,15 L13,15 L13,16 L7,16 L7,17 L8,17 L8,18 L9,18 L9,19 L7,19 L7,20 L8,20 L8,21 L9,21 L9,22 L6,22 L6,23 L7,23 L7,24 L8,24 L8,25 L10,25 L10,26 L11,26 L11,27 L7,27 L7,28 L8,28 L8,29 L7,29 L7,30 L6,30 L6,31 L5,31 L5,30 L3,30 L3,28 L6,28 L6,27 L5,27 L5,26 L4,26 L4,25 L3,25 L3,26 L2,26 L2,24 L1,24 L1,22 L3,22 L3,21 L2,21 L2,20 L1,20 L1,18 L3,18 L3,16 L2,16 L2,15 L0,15 L0,11 L-1,11 L-1,9 L2,9 L2,7 L1,7 L1,6 L2,6 L2,5 L1,5 L1,2 L0,2 Z " fill="#F12D1E" transform="translate(603,93)"/>
<path d="M0,0 L1,0 L1,49 L44,49 L44,48 L45,48 L45,51 L2,51 L2,57 L44,57 L44,56 L45,56 L45,63 L44,63 L44,58 L2,58 L2,59 L1,59 L1,61 L0,61 L0,53 L1,53 L1,52 L0,52 L0,51 L1,51 L1,50 L0,50 Z " fill="#E04B4A" transform="translate(495,56)"/>
<path d="M0,0 L1,0 L1,1 L2,1 L2,3 L3,3 L3,4 L4,4 L4,5 L5,5 L5,6 L6,6 L6,7 L7,7 L7,8 L8,8 L8,11 L9,11 L9,12 L10,12 L10,13 L7,13 L7,14 L8,14 L8,15 L9,15 L9,16 L10,16 L10,18 L7,18 L7,20 L9,20 L9,21 L10,21 L10,22 L11,22 L11,23 L10,23 L10,25 L7,25 L7,28 L6,28 L6,30 L7,30 L7,31 L8,31 L8,33 L10,33 L10,34 L8,34 L8,35 L7,35 L7,34 L6,34 L6,33 L5,33 L5,32 L4,32 L4,31 L3,31 L3,30 L2,30 L2,28 L3,28 L3,27 L1,27 L1,26 L2,26 L2,25 L1,25 L1,24 L0,24 L0,22 L1,22 L1,20 L0,20 L0,17 L1,17 L1,12 L0,12 L0,11 L-1,11 L-1,9 L1,9 L1,6 L2,6 L2,4 L1,4 L1,2 L0,2 Z " fill="#F1391F" transform="translate(165,88)"/>
<path d="M0,0 L1,0 L1,62 L2,62 L2,67 L3,67 L3,70 L4,70 L4,74 L5,74 L5,91 L6,91 L6,92 L5,92 L5,102 L4,102 L4,99 L3,99 L3,96 L2,96 L2,91 L1,91 L1,78 L0,78 Z " fill="#EDA36F" transform="translate(155,3)"/>
<path d="M0,0 L1,0 L1,13 L59,13 L59,14 L56,14 L56,15 L47,15 L47,16 L1,16 L1,30 L0,30 L0,28 L-1,28 L-1,27 L-2,27 L-2,26 L0,26 Z " fill="#DA6644" transform="translate(349,87)"/>
<path d="M0,0 L1,0 L1,23 L0,23 L0,25 L-1,25 L-1,28 L-2,28 L-2,25 L-3,25 L-3,23 L-4,23 L-4,22 L-5,22 L-5,21 L-6,21 L-6,20 L-7,20 L-7,19 L-8,19 L-8,18 L-10,18 L-10,17 L-11,17 L-11,16 L-13,16 L-13,15 L-16,15 L-16,14 L-15,14 L-15,13 L-13,13 L-13,12 L-11,12 L-11,11 L-9,11 L-9,10 L-8,10 L-8,9 L-7,9 L-7,8 L-5,8 L-5,7 L-4,7 L-4,6 L-3,6 L-3,5 L-2,5 L-2,3 L-1,3 L-1,2 L0,2 Z " fill="#EF8A2B" transform="translate(140,55)"/>
<path d="M0,0 L1,0 L1,4 L0,4 L0,5 L3,5 L3,6 L2,6 L2,7 L5,7 L5,9 L4,9 L4,10 L3,10 L3,11 L5,11 L5,12 L4,12 L4,14 L5,14 L5,16 L4,16 L4,17 L3,17 L3,18 L5,18 L5,20 L4,20 L4,21 L3,21 L3,22 L2,22 L2,23 L1,23 L1,24 L0,24 L0,25 L-2,25 L-2,26 L-3,26 L-3,25 L-8,25 L-8,24 L-6,24 L-6,23 L-5,23 L-5,22 L-3,22 L-3,21 L-2,21 L-2,20 L-5,20 L-5,19 L-4,19 L-4,18 L-3,18 L-3,17 L-6,17 L-6,16 L-4,16 L-4,15 L-3,15 L-3,14 L-9,14 L-9,13 L-8,13 L-8,12 L-6,12 L-6,11 L-4,11 L-4,10 L-3,10 L-3,9 L-7,9 L-7,8 L-6,8 L-6,7 L-4,7 L-4,6 L-3,6 L-3,5 L-5,5 L-5,3 L-3,3 L-3,2 L-1,2 L-1,1 L0,1 Z " fill="#F22B1E" transform="translate(270,96)"/>
<path d="M0,0 L44,0 L44,9 L1,9 L1,8 L0,8 Z M1,3 L1,8 L43,8 L43,3 Z " fill="#E6605D" transform="translate(739,124)"/>
<path d="M0,0 L1,0 L1,1 L3,1 L3,2 L4,2 L4,3 L5,3 L5,4 L6,4 L6,5 L7,5 L7,6 L8,6 L8,8 L9,8 L9,10 L10,10 L10,13 L11,13 L11,21 L12,21 L12,43 L11,43 L11,41 L10,41 L10,38 L9,38 L9,31 L8,31 L8,29 L7,29 L7,27 L8,27 L8,25 L7,25 L7,24 L6,24 L6,22 L7,22 L7,20 L6,20 L6,14 L7,14 L7,12 L6,12 L6,11 L5,11 L5,10 L4,10 L4,8 L5,8 L5,6 L0,6 L0,7 L-1,7 L-1,6 L-4,6 L-4,5 L2,5 L2,3 L1,3 L1,2 L0,2 Z " fill="#EE4A21" transform="translate(824,78)"/>
<path d="M0,0 L42,0 L42,4 L0,4 Z " fill="#F30920" transform="translate(102,115)"/>
<path d="M0,0 L1,0 L1,38 L0,38 L0,39 L1,39 L1,40 L0,40 L0,43 L-1,43 L-1,46 L-2,46 L-2,49 L-3,49 L-3,51 L-4,51 L-4,46 L-6,46 L-6,45 L-5,45 L-5,43 L-4,43 L-4,42 L-5,42 L-5,36 L-4,36 L-4,34 L-6,34 L-6,33 L-5,33 L-5,31 L-4,31 L-4,30 L-5,30 L-5,28 L-4,28 L-4,25 L-3,25 L-3,21 L-2,21 L-2,18 L-1,18 L-1,15 L0,15 Z " fill="#F0A54F" transform="translate(880,33)"/>
<path d="M0,0 L1,0 L1,85 L0,85 L0,93 L-1,93 L-1,97 L-2,97 L-2,100 L-3,100 L-3,103 L-4,103 L-4,105 L-5,105 L-5,101 L-4,101 L-4,97 L-3,97 L-3,89 L-2,89 L-2,72 L-1,72 L-1,63 L0,63 Z " fill="#DB8F50" transform="translate(722,3)"/>
<path d="M0,0 L1,0 L1,32 L-42,32 L-42,29 L0,29 Z " fill="#C10918" transform="translate(348,76)"/>
<path d="M0,0 L1,0 L1,32 L-42,32 L-42,29 L0,29 Z " fill="#C10918" transform="translate(46,76)"/>
<path d="M0,0 L1,0 L1,3 L43,3 L43,2 L44,2 L44,15 L43,15 L43,16 L0,16 Z M1,5 L1,15 L43,15 L43,5 Z " fill="#E04B4A" transform="translate(496,117)"/>
<path d="M0,0 L1,0 L1,2 L0,2 L0,5 L-1,5 L-1,7 L0,7 L0,8 L-1,8 L-1,10 L-2,10 L-2,11 L0,11 L0,13 L-1,13 L-1,19 L0,19 L0,20 L-1,20 L-1,22 L-2,22 L-2,23 L0,23 L0,29 L-1,29 L-1,26 L-2,26 L-2,24 L-3,24 L-3,22 L-4,22 L-4,21 L-5,21 L-5,20 L-6,20 L-6,19 L-7,19 L-7,18 L-8,18 L-8,17 L-9,17 L-9,16 L-11,16 L-11,15 L-13,15 L-13,14 L-15,14 L-15,12 L-13,12 L-13,11 L-11,11 L-11,10 L-9,10 L-9,9 L-8,9 L-8,8 L-6,8 L-6,7 L-5,7 L-5,6 L-4,6 L-4,5 L-3,5 L-3,4 L-2,4 L-2,3 L-1,3 L-1,1 L0,1 Z " fill="#EA8529" transform="translate(876,56)"/>
<path d="M0,0 L1,0 L1,6 L5,6 L5,8 L6,8 L6,10 L7,10 L7,11 L8,11 L8,13 L6,13 L6,14 L7,14 L7,20 L8,20 L8,21 L7,21 L7,24 L6,24 L6,26 L3,26 L3,23 L1,23 L1,25 L0,25 L0,26 L-1,26 L-1,18 L-2,18 L-2,16 L-1,16 L-1,11 L0,11 L0,9 L-1,9 L-1,6 L0,6 Z " fill="#F8BE67" transform="translate(971,38)"/>
<path d="M0,0 L1,0 L1,6 L2,6 L2,10 L3,10 L3,14 L4,14 L4,17 L5,17 L5,27 L4,27 L4,38 L5,38 L5,42 L6,42 L6,44 L7,44 L7,46 L8,46 L8,48 L9,48 L9,49 L8,49 L8,51 L7,51 L7,49 L6,49 L6,47 L5,47 L5,45 L4,45 L4,42 L3,42 L3,39 L2,39 L2,35 L1,35 L1,30 L0,30 Z " fill="#EF7C37" transform="translate(590,62)"/>
<path d="M0,0 L1,0 L1,8 L2,8 L2,18 L1,18 L1,23 L0,23 L0,25 L-1,25 L-1,31 L-2,31 L-2,32 L-3,32 L-3,33 L-4,33 L-4,34 L-5,34 L-5,35 L-6,35 L-6,36 L-7,36 L-7,37 L-9,37 L-9,36 L-10,36 L-10,35 L-9,35 L-9,34 L-7,34 L-7,33 L-6,33 L-6,32 L-5,32 L-5,31 L-4,31 L-4,28 L-6,28 L-6,27 L-5,27 L-5,26 L-4,26 L-4,24 L-5,24 L-5,22 L-4,22 L-4,21 L-3,21 L-3,20 L-4,20 L-4,19 L-3,19 L-3,16 L-5,16 L-5,14 L-4,14 L-4,13 L-3,13 L-3,12 L-5,12 L-5,11 L-4,11 L-4,9 L-3,9 L-3,7 L-2,7 L-2,6 L-1,6 L-1,4 L0,4 Z " fill="#F59331" transform="translate(442,55)"/>
<path d="M0,0 L1,0 L1,4 L0,4 L0,10 L-1,10 L-1,8 L-2,8 L-2,13 L-3,13 L-3,16 L-2,16 L-2,26 L-14,26 L-14,25 L-13,25 L-13,23 L-12,23 L-12,21 L-11,21 L-11,20 L-10,20 L-10,18 L-9,18 L-9,16 L-8,16 L-8,14 L-7,14 L-7,13 L-6,13 L-6,11 L-5,11 L-5,9 L-4,9 L-4,8 L-3,8 L-3,6 L-2,6 L-2,4 L-1,4 L-1,2 L0,2 Z " fill="#ED9D3F" transform="translate(969,38)"/>
<path d="M0,0 L1,0 L1,1 L2,1 L2,2 L3,2 L3,3 L4,3 L4,4 L5,4 L5,12 L4,12 L4,14 L3,14 L3,15 L2,15 L2,16 L1,16 L1,15 L-1,15 L-1,14 L-2,14 L-2,13 L0,13 L0,12 L-1,12 L-1,11 L-4,11 L-4,10 L-10,10 L-10,9 L-48,9 L-48,18 L-49,18 L-49,6 L-48,6 L-48,8 L1,8 L1,7 L0,7 L0,6 L3,6 L3,4 L2,4 L2,3 L1,3 L1,2 L0,2 Z " fill="#EFBF6F" transform="translate(398,31)"/>
<path d="M0,0 L1,0 L1,1 L2,1 L2,3 L3,3 L3,5 L4,5 L4,7 L5,7 L5,20 L6,20 L6,36 L7,36 L7,43 L6,43 L6,39 L5,39 L5,35 L4,35 L4,33 L3,33 L3,31 L2,31 L2,29 L1,29 L1,28 L0,28 L0,27 L-1,27 L-1,25 L1,25 L1,23 L2,23 L2,20 L3,20 L3,17 L2,17 L2,14 L1,14 L1,12 L0,12 L0,11 L2,11 L2,8 L1,8 L1,6 L2,6 L2,4 L1,4 L1,2 L0,2 Z " fill="#F0532E" transform="translate(93,82)"/>
<path d="M0,0 L1,0 L1,29 L0,29 L0,30 L1,30 L1,32 L0,32 L0,40 L-1,40 L-1,44 L-2,44 L-2,46 L-3,46 L-3,48 L-4,48 L-4,51 L-5,51 L-5,45 L-4,45 L-4,43 L-3,43 L-3,18 L-2,18 L-2,15 L-1,15 L-1,11 L0,11 Z " fill="#F1AF62" transform="translate(144,35)"/>
<path d="M0,0 L1,0 L1,2 L0,2 L0,6 L-1,6 L-1,7 L0,7 L0,9 L-1,9 L-1,8 L-2,8 L-2,6 L-3,6 L-3,9 L-4,9 L-4,11 L-3,11 L-3,13 L-4,13 L-4,15 L-2,15 L-2,16 L-3,16 L-3,18 L-4,18 L-4,19 L-3,19 L-3,21 L-4,21 L-4,23 L-3,23 L-3,25 L-2,25 L-2,28 L-3,28 L-3,31 L-6,31 L-6,30 L-8,30 L-8,29 L-7,29 L-7,28 L-6,28 L-6,26 L-7,26 L-7,24 L-6,24 L-6,23 L-8,23 L-8,22 L-7,22 L-7,21 L-6,21 L-6,19 L-9,19 L-9,18 L-8,18 L-8,17 L-11,17 L-11,16 L-10,16 L-10,12 L-9,12 L-9,11 L-8,11 L-8,10 L-7,10 L-7,9 L-6,9 L-6,8 L-5,8 L-5,7 L-4,7 L-4,5 L-3,5 L-3,4 L-2,4 L-2,3 L-1,3 L-1,1 L0,1 Z " fill="#EF3B1E" transform="translate(281,84)"/>
<path d="M0,0 L41,0 L41,3 L0,3 Z " fill="#F63E52" transform="translate(103,130)"/>
<path d="M0,0 L1,0 L1,1 L4,1 L4,2 L3,2 L3,3 L2,3 L2,8 L1,8 L1,9 L3,9 L3,10 L2,10 L2,11 L1,11 L1,13 L3,13 L3,14 L2,14 L2,15 L1,15 L1,16 L0,16 L0,17 L-1,17 L-1,19 L0,19 L0,22 L-2,22 L-2,23 L-3,23 L-3,24 L-4,24 L-4,25 L-6,25 L-6,26 L-8,26 L-8,25 L-10,25 L-10,24 L-9,24 L-9,23 L-6,23 L-6,22 L-5,22 L-5,21 L-4,21 L-4,20 L-3,20 L-3,18 L-6,18 L-6,17 L-5,17 L-5,16 L-4,16 L-4,15 L-7,15 L-7,14 L-6,14 L-6,13 L-5,13 L-5,12 L-4,12 L-4,11 L-6,11 L-6,10 L-5,10 L-5,9 L-4,9 L-4,8 L-2,8 L-2,7 L-1,7 L-1,6 L0,6 L0,5 L1,5 L1,4 L-3,4 L-3,3 L-2,3 L-2,2 L-1,2 L-1,1 L0,1 Z " fill="#F33523" transform="translate(708,100)"/>
<path d="M0,0 L35,0 L35,2 L34,2 L34,3 L-9,3 L-9,2 L-8,2 L-8,1 L0,1 Z " fill="#F3031E" transform="translate(897,122)"/>
<path d="M0,0 L2,0 L2,2 L3,2 L3,3 L2,3 L2,6 L3,6 L3,7 L41,7 L41,6 L43,6 L43,5 L44,5 L44,7 L42,7 L42,8 L43,8 L43,10 L42,10 L42,9 L2,9 L2,14 L3,14 L3,15 L1,15 L1,14 L0,14 L0,6 L-1,6 L-1,3 L0,3 Z " fill="#F31723" transform="translate(837,106)"/>
<path d="M0,0 L37,0 L37,1 L41,1 L41,3 L40,3 L40,4 L38,4 L38,3 L0,3 Z " fill="#F7CA7A" transform="translate(47,28)"/>
<path d="M0,0 L1,0 L1,121 L0,121 Z " fill="#E6605D" transform="translate(739,3)"/>
<path d="M0,0 L41,0 L41,2 L39,2 L39,3 L1,3 L1,2 L0,2 Z " fill="#F3081E" transform="translate(839,110)"/>
<path d="M0,0 L4,0 L4,1 L6,1 L6,2 L9,2 L9,3 L10,3 L10,4 L11,4 L11,5 L12,5 L12,6 L13,6 L13,13 L12,13 L12,15 L11,15 L11,16 L10,16 L10,17 L9,17 L9,18 L7,18 L7,16 L4,16 L4,15 L-1,15 L-1,14 L6,14 L6,13 L4,13 L4,12 L11,12 L11,11 L10,11 L10,10 L9,10 L9,9 L7,9 L7,8 L3,8 L3,7 L-1,7 L-1,6 L6,6 L6,4 L4,4 L4,3 L-1,3 L-1,2 L0,2 Z " fill="#EEBD6D" transform="translate(88,29)"/>
<path d="M0,0 L1,0 L1,1 L2,1 L2,6 L1,6 L1,9 L0,9 L0,13 L-1,13 L-1,8 L-67,8 L-67,9 L-68,9 L-68,15 L-69,15 L-69,24 L-70,24 L-70,13 L-69,13 L-69,11 L-70,11 L-70,9 L-69,9 L-69,3 L-68,3 L-68,7 L0,7 L0,5 L-1,5 L-1,3 L0,3 Z " fill="#F23C1F" transform="translate(1007,93)"/>
<path d="M0,0 L1,0 L1,29 L0,29 L0,31 L1,31 L1,32 L0,32 L0,40 L-1,40 L-1,44 L-2,44 L-2,46 L-3,46 L-3,48 L-4,48 L-4,50 L-5,50 L-5,45 L-4,45 L-4,43 L-3,43 L-3,38 L-2,38 L-2,28 L-3,28 L-3,18 L-2,18 L-2,16 L-1,16 L-1,11 L0,11 Z " fill="#F2B061" transform="translate(446,35)"/>
<path d="M0,0 L39,0 L39,1 L36,1 L36,2 L35,2 L35,3 L-2,3 L-2,1 L0,1 Z " fill="#F30720" transform="translate(1017,130)"/>
<path d="M0,0 L3,0 L3,2 L2,2 L2,3 L1,3 L1,4 L0,4 L0,5 L-1,5 L-1,6 L-2,6 L-2,7 L-3,7 L-3,8 L-4,8 L-4,9 L-6,9 L-6,10 L-7,10 L-7,11 L-9,11 L-9,12 L-11,12 L-11,13 L-13,13 L-13,14 L-15,14 L-15,15 L-18,15 L-18,16 L-21,16 L-21,17 L-25,17 L-25,18 L-29,18 L-29,17 L-30,17 L-30,16 L-24,16 L-24,15 L-31,15 L-31,14 L-27,14 L-27,13 L-22,13 L-22,12 L-21,12 L-21,13 L-18,13 L-18,12 L-16,12 L-16,11 L-14,11 L-14,10 L-11,10 L-11,9 L-8,9 L-8,7 L-7,7 L-7,6 L-5,6 L-5,5 L-4,5 L-4,4 L-3,4 L-3,3 L-2,3 L-2,2 L-1,2 L-1,1 L0,1 Z " fill="#F43234" transform="translate(275,115)"/>
<path d="M0,0 L1,0 L1,4 L0,4 L0,15 L-1,15 L-1,11 L-2,11 L-2,17 L-3,17 L-3,18 L-2,18 L-2,27 L-4,27 L-4,35 L-5,35 L-5,39 L-6,39 L-6,36 L-7,36 L-7,34 L-8,34 L-8,32 L-7,32 L-7,30 L-8,30 L-8,29 L-7,29 L-7,27 L-6,27 L-6,26 L-8,26 L-8,24 L-7,24 L-7,22 L-8,22 L-8,20 L-7,20 L-7,17 L-6,17 L-6,19 L-5,19 L-5,20 L-4,20 L-4,18 L-5,18 L-5,17 L-4,17 L-4,13 L-3,13 L-3,9 L-2,9 L-2,6 L-1,6 L-1,3 L0,3 Z " fill="#ED4E1F" transform="translate(285,73)"/>
<path d="M0,0 L1,0 L1,4 L0,4 L0,5 L1,5 L1,8 L0,8 L0,7 L-1,7 L-1,6 L-2,6 L-2,13 L-3,13 L-3,15 L-2,15 L-2,21 L-3,21 L-3,23 L-2,23 L-2,28 L-3,28 L-3,30 L-4,30 L-4,31 L-7,31 L-7,29 L-6,29 L-6,28 L-5,28 L-5,27 L-7,27 L-7,26 L-6,26 L-6,21 L-5,21 L-5,20 L-4,20 L-4,19 L-7,19 L-7,18 L-6,18 L-6,16 L-8,16 L-8,11 L-7,11 L-7,10 L-6,10 L-6,9 L-5,9 L-5,8 L-4,8 L-4,7 L-3,7 L-3,5 L-2,5 L-2,4 L-1,4 L-1,2 L0,2 Z " fill="#ED411E" transform="translate(716,82)"/>
<path d="M0,0 L1,0 L1,110 L0,110 Z " fill="#DA6644" transform="translate(305,3)"/>
<path d="M0,0 L42,0 L42,1 L1,1 L1,19 L43,19 L43,15 L44,15 L44,20 L0,20 Z " fill="#DA6644" transform="translate(305,113)"/>
<path d="M0,0 L1,0 L1,2 L0,2 L0,4 L-1,4 L-1,5 L-2,5 L-2,7 L-3,7 L-3,9 L-4,9 L-4,10 L-2,10 L-2,11 L-3,11 L-3,12 L-4,12 L-4,13 L-5,13 L-5,14 L-6,14 L-6,15 L-8,15 L-8,16 L-9,16 L-9,17 L-11,17 L-11,18 L-13,18 L-13,19 L-14,19 L-14,18 L-20,18 L-20,17 L-18,17 L-18,16 L-15,16 L-15,15 L-13,15 L-13,14 L-17,14 L-17,13 L-16,13 L-16,12 L-14,12 L-14,11 L-11,11 L-11,10 L-10,10 L-10,9 L-8,9 L-8,8 L-7,8 L-7,7 L-5,7 L-5,6 L-4,6 L-4,5 L-3,5 L-3,4 L-2,4 L-2,3 L-1,3 L-1,1 L0,1 Z " fill="#ED7F26" transform="translate(441,57)"/>
<path d="M0,0 L1,0 L1,105 L0,105 Z " fill="#DA3237" transform="translate(3,3)"/>
<path d="M0,0 L2,0 L2,1 L3,1 L3,3 L4,3 L4,8 L3,8 L3,10 L0,10 L0,4 L-1,4 L-1,10 L-2,10 L-2,13 L-1,13 L-1,15 L-2,15 L-2,20 L-3,20 L-3,22 L-2,22 L-2,30 L-5,30 L-5,20 L-6,20 L-6,17 L-5,17 L-5,12 L-4,12 L-4,14 L-3,14 L-3,8 L-2,8 L-2,3 L-1,3 L-1,1 L0,1 Z " fill="#F3B65D" transform="translate(972,34)"/>
<path d="M0,0 L1,0 L1,2 L2,2 L2,4 L3,4 L3,5 L4,5 L4,7 L5,7 L5,9 L6,9 L6,11 L5,11 L5,12 L4,12 L4,15 L3,15 L3,20 L4,20 L4,22 L3,22 L3,25 L2,25 L2,19 L1,19 L1,23 L0,23 L0,21 L-1,21 L-1,9 L-2,9 L-2,6 L-1,6 L-1,3 L0,3 Z " fill="#EE271D" transform="translate(1009,96)"/>
<path d="M0,0 L1,0 L1,1 L2,1 L2,4 L3,4 L3,14 L2,14 L2,15 L3,15 L3,22 L2,22 L2,24 L1,24 L1,26 L0,26 L0,27 L-1,27 L-1,28 L-2,28 L-2,30 L-3,30 L-3,31 L-4,31 L-4,32 L-5,32 L-5,33 L-6,33 L-6,31 L-7,31 L-7,29 L-6,29 L-6,28 L-5,28 L-5,27 L-4,27 L-4,26 L-3,26 L-3,25 L-2,25 L-2,24 L-1,24 L-1,22 L0,22 L0,17 L-1,17 L-1,15 L0,15 L0,9 L-1,9 L-1,7 L0,7 Z " fill="#F4562D" transform="translate(714,88)"/>
<path d="M0,0 L40,0 L40,1 L44,1 L44,2 L48,2 L48,3 L47,3 L47,4 L46,4 L46,5 L45,5 L45,4 L40,4 L40,3 L42,3 L42,2 L0,2 Z " fill="#F1C577" transform="translate(349,28)"/>
<path d="M0,0 L1,0 L1,1 L2,1 L2,3 L3,3 L3,5 L4,5 L4,7 L5,7 L5,8 L6,8 L6,10 L7,10 L7,12 L8,12 L8,14 L9,14 L9,15 L10,15 L10,16 L-1,16 L-1,15 L0,15 L0,13 L-1,13 L-1,7 L0,7 L0,5 L-1,5 L-1,3 L0,3 Z " fill="#EE9A3B" transform="translate(981,48)"/>
<path d="M0,0 L5,0 L5,1 L3,1 L3,2 L-1,2 L-1,3 L-5,3 L-5,4 L-45,4 L-45,2 L-2,2 L-2,1 L0,1 Z " fill="#F4C574" transform="translate(394,47)"/>
<path d="M0,0 L1,0 L1,2 L2,2 L2,6 L3,6 L3,12 L4,12 L4,13 L5,13 L5,16 L3,16 L3,17 L4,17 L4,22 L3,22 L3,25 L4,25 L4,26 L3,26 L3,27 L2,27 L2,25 L1,25 L1,23 L0,23 L0,19 L-1,19 L-1,8 L0,8 Z " fill="#F25520" transform="translate(595,81)"/>
<path d="M0,0 L1,0 L1,1 L2,1 L2,3 L3,3 L3,4 L4,4 L4,5 L5,5 L5,7 L6,7 L6,10 L7,10 L7,13 L8,13 L8,14 L7,14 L7,15 L8,15 L8,17 L5,17 L5,19 L6,19 L6,23 L8,23 L8,24 L9,24 L9,26 L7,26 L7,28 L8,28 L8,29 L9,29 L9,30 L7,30 L7,31 L4,31 L4,30 L5,30 L5,28 L4,28 L4,27 L3,27 L3,26 L4,26 L4,23 L3,23 L3,22 L5,22 L5,20 L4,20 L4,19 L3,19 L3,14 L5,14 L5,12 L4,12 L4,10 L5,10 L5,8 L4,8 L4,6 L3,6 L3,8 L1,8 L1,2 L0,2 Z " fill="#EE3D1E" transform="translate(597,85)"/>
<path d="M0,0 L1,0 L1,1 L4,1 L4,0 L6,0 L6,2 L4,2 L4,3 L2,3 L2,4 L0,4 L0,5 L-3,5 L-3,6 L-6,6 L-6,7 L-10,7 L-10,8 L-14,8 L-14,9 L-18,9 L-18,8 L-29,8 L-29,7 L-13,7 L-13,6 L-15,6 L-15,5 L-14,5 L-14,4 L-11,4 L-11,3 L-3,3 L-3,2 L-1,2 L-1,1 L0,1 Z " fill="#F57F35" transform="translate(426,92)"/>
<path d="M0,0 L1,0 L1,5 L4,5 L4,7 L3,7 L3,10 L2,10 L2,13 L3,13 L3,17 L4,17 L4,19 L3,19 L3,22 L2,22 L2,24 L3,24 L3,25 L4,25 L4,29 L6,29 L6,30 L7,30 L7,31 L6,31 L6,32 L8,32 L8,33 L7,33 L7,34 L6,34 L6,33 L5,33 L5,32 L4,32 L4,30 L3,30 L3,28 L2,28 L2,27 L1,27 L1,25 L0,25 L0,12 L1,12 L1,11 L0,11 Z " fill="#F4602E" transform="translate(160,83)"/>
<path d="M0,0 L1,0 L1,2 L2,2 L2,4 L1,4 L1,6 L2,6 L2,8 L0,8 L0,13 L1,13 L1,14 L2,14 L2,16 L0,16 L0,17 L1,17 L1,20 L0,20 L0,21 L1,21 L1,22 L2,22 L2,24 L1,24 L1,25 L4,25 L4,26 L5,26 L5,28 L6,28 L6,27 L7,27 L7,28 L8,28 L8,29 L9,29 L9,30 L6,30 L6,31 L5,31 L5,30 L4,30 L4,29 L3,29 L3,28 L2,28 L2,27 L1,27 L1,26 L0,26 L0,25 L-1,25 L-1,23 L-2,23 L-2,20 L-1,20 L-1,19 L-2,19 L-2,16 L-1,16 L-1,15 L-2,15 L-2,12 L-1,12 L-1,7 L-2,7 L-2,6 L0,6 L0,3 L-1,3 L-1,2 L0,2 Z " fill="#F44C2B" transform="translate(600,91)"/>
<path d="M0,0 L1,0 L1,1 L3,1 L3,3 L2,3 L2,4 L1,4 L1,5 L0,5 L0,6 L2,6 L2,8 L0,8 L0,9 L-2,9 L-2,10 L-4,10 L-4,11 L-7,11 L-7,12 L-10,12 L-10,13 L-14,13 L-14,14 L-17,14 L-17,11 L-9,11 L-9,9 L-7,9 L-7,8 L-5,8 L-5,7 L-3,7 L-3,6 L-2,6 L-2,5 L-1,5 L-1,4 L-7,4 L-7,3 L-5,3 L-5,2 L-2,2 L-2,1 L0,1 Z " fill="#F4252D" transform="translate(698,119)"/>
<path d="M0,0 L1,0 L1,3 L2,3 L2,5 L3,5 L3,6 L4,6 L4,8 L5,8 L5,11 L6,11 L6,13 L7,13 L7,15 L6,15 L6,18 L4,18 L4,20 L5,20 L5,21 L6,21 L6,26 L5,26 L5,29 L6,29 L6,31 L5,31 L5,33 L4,33 L4,29 L3,29 L3,28 L2,28 L2,26 L3,26 L3,23 L4,23 L4,21 L3,21 L3,17 L2,17 L2,14 L3,14 L3,11 L4,11 L4,9 L1,9 L1,4 L0,4 Z " fill="#ED4B1F" transform="translate(160,79)"/>
<path d="M0,0 L1,0 L1,76 L0,76 Z " fill="#E04B4A" transform="translate(539,28)"/>
<path d="M0,0 L1,0 L1,4 L0,4 L0,10 L-1,10 L-1,12 L0,12 L0,14 L-1,14 L-1,26 L-3,26 L-3,30 L-4,30 L-4,19 L-3,19 L-3,17 L-4,17 L-4,12 L-3,12 L-3,5 L-2,5 L-2,4 L-1,4 L-1,2 L0,2 Z " fill="#EE2A1D" transform="translate(938,92)"/>
<path d="M0,0 L1,0 L1,4 L0,4 L0,21 L-1,21 L-1,29 L-2,29 L-2,33 L-3,33 L-3,32 L-4,32 L-4,31 L-3,31 L-3,21 L-4,21 L-4,19 L-3,19 L-3,16 L-4,16 L-4,15 L-3,15 L-3,9 L-2,9 L-2,6 L-1,6 L-1,3 L0,3 Z " fill="#E85E20" transform="translate(720,71)"/>
<path d="M0,0 L2,0 L2,1 L4,1 L4,2 L6,2 L6,3 L7,3 L7,5 L8,5 L8,13 L7,13 L7,15 L6,15 L6,16 L4,16 L4,17 L3,17 L3,16 L2,16 L2,15 L1,15 L1,14 L3,14 L3,13 L2,13 L2,12 L-1,12 L-1,11 L6,11 L6,9 L4,9 L4,8 L3,8 L3,6 L5,6 L5,4 L2,4 L2,3 L0,3 Z " fill="#EAB969" transform="translate(829,30)"/>
<path d="M0,0 L5,0 L5,1 L9,1 L9,3 L10,3 L10,4 L14,4 L14,5 L17,5 L17,4 L18,4 L18,7 L22,7 L22,8 L26,8 L26,9 L25,9 L25,10 L21,10 L21,9 L17,9 L17,8 L14,8 L14,7 L11,7 L11,6 L9,6 L9,5 L7,5 L7,4 L5,4 L5,3 L3,3 L3,2 L2,2 L2,1 L0,1 Z " fill="#F43039" transform="translate(173,123)"/>
<path d="M0,0 L1,0 L1,2 L2,2 L2,3 L3,3 L3,5 L4,5 L4,7 L5,7 L5,12 L4,12 L4,14 L5,14 L5,16 L4,16 L4,22 L5,22 L5,24 L4,24 L4,25 L1,25 L1,23 L2,23 L2,20 L3,20 L3,19 L2,19 L2,13 L1,13 L1,12 L3,12 L3,10 L2,10 L2,9 L1,9 L1,7 L0,7 L0,5 L-1,5 L-1,3 L0,3 Z " fill="#F1AD51" transform="translate(976,39)"/>
</svg>
